# xmcd CD database file generated by Grip 2.96
# 
# Track frame offsets:
#       150
#       9885
#       22379
#       32934
#       43556
#       54264
#       59670
#       68884
#       79858
#       91070
# 
# Disc length: 1452 seconds
# 
# Revision: 0
# Processed by: cddbd v1.4PL0 Copyright (c) Steve Scherf et al.
# Submitted via: Grip 2.96
# 
DISCID=7d05aa0a
DTITLE=Marty Jones and the Pork Boilin' Poor Boys - Marty Jones and the Pork Boilin' Poor Boys
DYEAR=1900
DGENRE=
TTITLE0=Come On In
TTITLE1=Too Much Talk
TTITLE2=Hellbent for Love
TTITLE3=Old Lady
TTITLE4=I'll Have Another One
TTITLE5=Tremble
TTITLE6=Whole Lotta Love
TTITLE7=Shouldn't I--
TTITLE8=Queen of the Road
TTITLE9=One More Beer
EXTD=
EXTT0=
EXTT1=
EXTT2=
EXTT3=
EXTT4=
EXTT5=
EXTT6=
EXTT7=
EXTT8=
EXTT9=
PLAYORDER=
